# xmcd
#
# Track frame offsets:
#	182
#	12270
#	27180
#	38505
#	51780
#	64402
#	81182
#	93685
#	109952
#	119382
#
# Disc length: 1789 seconds
#
# Revision: 1
# Processed by: cddbd v1.4PL0 Copyright (c) Steve Scherf et al.
# Submitted via: audiograbber 1.80.04
#
DISCID=8006fb0a
DTITLE=Larry Boone - Larry Boone
DYEAR=1900
DGENRE=
TTITLE0=Stranger Things Have Happened
TTITLE1=Don't Give Candy To A Stranger
TTITLE2=It's To Late Know
TTITLE3=A Stranger's Point Of View
TTITLE4=Reason For The Rain
TTITLE5=Roses In December
TTITLE6=Stop Me If Your Heard This One Before
TTITLE7=American Faces
TTITLE8=Honk Tonk Song
TTITLE9=I Talked a Lot About Leaving
EXTD=
EXTT0=
EXTT1=
EXTT2=
EXTT3=
EXTT4=
EXTT5=
EXTT6=
EXTT7=
EXTT8=
EXTT9=
PLAYORDER=
